#!OML:ASF I:\salsa\salsa 7_09\Patient 1\Session 1\dancerfemale.ASF
:FULLY-SPECIFIED
:DEGREES
1647
root -6.30698 16.3988 2.73788 -536.642 -748.788 -906.621
lowerback -7.20798 -8.07058 1.84631
upperback -3.40833 -11.6532 -7.537
thorax -1.56165 -6.35021 -9.46453
lowerneck 16.3889 -9.19786 -17.5637
upperneck 9.34315 -17.716 12.6469
head 2.85223 -10.0977 6.71459
rclavicle -8.24956e-014 -7.95139e-015
rhumerus -10.5163 -16.5181 -31.2735
rradius 61.2127
rwrist -17.6688
rhand 7.43899 410.704
rfingers 7.12502
rthumb 32.6935 -696.361
lclavicle -8.24956e-014 -7.95139e-015
lhumerus 15.5687 -41.3036 72.7525
lradius 77.0447
lwrist 19.2429
lhand 30.8465 17.7544
lfingers 7.12502
lthumb 54.4663 -683.728
rfemur -2.35128 8.91997 6.24231
rtibia 20.4079
rfoot -1.83695 4.53137
rtoes 44.6017
lfemur -15.2115 -12.9437 -18.1753
ltibia 34.3668
lfoot -10.0003 -16.4759
ltoes -41.3247
1648
root -5.94109 16.4049 2.5982 -536.117 -753.725 -907.015
lowerback -7.79642 -8.37821 1.08967
upperback -3.30461 -11.9721 -7.59988
thorax -1.04916 -6.4739 -9.24857
lowerneck 16.8704 -9.07597 -17.7374
upperneck 9.06937 -17.3867 11.797
head 2.60211 -9.89524 6.53285
rclavicle 8.26944e-014 6.75868e-014
rhumerus -13.6313 -15.9337 -29.7689
rradius 64.6331
rwrist -21.3371
rhand 8.24065 409.171
rfingers 7.12502
rthumb 33.4558 -697.732
lclavicle 8.26944e-014 6.75868e-014
lhumerus 14.4642 -41.8508 74.8913
lradius 77.3097
lwrist 19.6329
lhand 32.6107 17.4087
lfingers 7.12502
lthumb 56.0375 -685.231
rfemur 0.289558 9.8127 8.08437
rtibia 18.109
rfoot -0.921415 2.03142
rtoes 43.6533
lfemur -16.3182 -15.1075 -16.8584
ltibia 33.765
lfoot -8.91345 -16.5615
ltoes -42.8051
1649
root -5.55686 16.3811 2.45964 -535.832 -758.692 -907.074
lowerback -8.13725 -8.67427 0.394932
upperback -3.13902 -12.2409 -7.5187
thorax -0.571282 -6.55778 -8.88332
lowerneck 17.1973 -8.92532 -17.245
upperneck 8.69091 -16.8229 10.3733
head 2.21345 -9.53434 6.08442
rclavicle 6.30147e-014 4.29375e-014
rhumerus -16.6696 -15.4706 -28.2204
rradius 68.7263
rwrist -24.7985
rhand 8.51031 407.62
rfingers 7.12502
rthumb 33.7121 -699.227
lclavicle 6.30147e-014 4.29375e-014
lhumerus 14.1755 -42.4511 76.2782
lradius 77.5834
lwrist 20.5356
lhand 35.0086 17.6736
lfingers 7.12502
lthumb 58.1446 -686.736
rfemur 2.30726 9.74656 10.5693
rtibia 16.6018
rfoot -0.280868 -1.4737
rtoes 43.1379
lfemur -18.0466 -15.7432 -15.2052
ltibia 33.8725
lfoot -7.94282 -17.1599
ltoes -44.0969
1650
root -5.18123 16.3273 2.32935 -535.825 -763.329 -906.84
lowerback -8.5028 -8.76332 0.200448
upperback -2.85571 -12.2493 -7.48207
thorax -0.0259753 -6.5148 -8.84695
lowerneck 17.249 -8.64025 -16.6917
upperneck 8.46581 -16.1079 9.2442
head 1.91604 -9.10356 5.69945
rclavicle 9.18385e-014 5.40694e-014
rhumerus -19.6047 -15.0394 -27.0002
rradius 73.7004
rwrist -30.012
rhand 8.44061 404.643
rfingers 7.12502
rthumb 33.6459 -702.219
lclavicle 9.18385e-014 5.40694e-014
lhumerus 14.5758 -43.414 77.1023
lradius 77.7175
lwrist 20.8627
lhand 37.1333 17.8556
lfingers 7.12502
lthumb 59.9794 -688.342
rfemur 3.58581 9.4552 13.2767
rtibia 15.9301
rfoot 0.639393 -5.49711
rtoes 42.2166
lfemur -20.0779 -15.0611 -13.6176
ltibia 34.5554
lfoot -7.06226 -18.007
ltoes -45.2165
1651
root -4.81618 16.2451 2.19837 -536.361 -767.705 -906.225
lowerback -9.00803 -8.68511 0.371815
upperback -2.2916 -12.0224 -7.46714
thorax 0.847487 -6.33442 -9.07833
lowerneck 17.0058 -8.38283 -15.5592
upperneck 8.28613 -15.2719 7.6282
head 1.59521 -8.58192 5.06489
rclavicle 1.54456e-013 5.88403e-014
rhumerus -22.4007 -14.7409 -26.1496
rradius 79.6226
rwrist -36.9821
rhand 7.53247 400.766
rfingers 7.12502
rthumb 32.7824 -706.28
lclavicle 1.54456e-013 5.88403e-014
lhumerus 16.0413 -44.6703 77.2271
lradius 77.4083
lwrist 20.6457
lhand 39.3896 17.6251
lfingers 7.12502
lthumb 61.8873 -690.741
rfemur 4.48126 8.62642 16.1924
rtibia 15.8475
rfoot 1.67511 -9.94463
rtoes 41.3423
lfemur -21.9782 -13.804 -12.1627
ltibia 35.4993
lfoot -6.1457 -18.4857
ltoes -46.251
1652
root -4.44994 16.1687 2.06751 -537.223 -771.681 -905.473
lowerback -8.89777 -8.47782 0.553765
upperback -2.04505 -11.6845 -7.35441
thorax 1.09016 -6.12387 -9.04621
lowerneck 16.848 -7.88419 -14.15
upperneck 8.35724 -14.1535 5.41444
head 1.27128 -7.93809 4.20938
rclavicle -1.70557e-013 -3.49861e-014
rhumerus -25.1194 -14.2537 -25.3195
rradius 85.8113
rwrist -43.8582
rhand 6.84477 397.613
rfingers 7.12502
rthumb 32.1279 -709.567
lclavicle -1.70557e-013 -3.49861e-014
lhumerus 17.4295 -46.098 77.2601
lradius 76.9943
lwrist 20.684
lhand 41.2945 17.1754
lfingers 7.12502
lthumb 63.4592 -693.275
rfemur 4.59246 6.28376 18.7285
rtibia 16.5475
rfoot 1.68969 -12.8322
rtoes 38.6687
lfemur -23.6022 -12.0915 -11.0409
ltibia 36.4574
lfoot -5.73728 -18.5833
ltoes -47.7805
1653
root -4.08198 16.1041 1.93428 -538.442 -775.246 -904.544
lowerback -8.35519 -8.06781 0.815899
upperback -1.95424 -11.1184 -7.255
thorax 0.950953 -5.81846 -8.96237
lowerneck 16.7934 -7.09195 -12.6945
upperneck 8.66276 -12.7482 3.49093
head 1.02868 -7.18441 3.42296
rclavicle -3.73715e-014 -3.97569e-014
rhumerus -27.8383 -13.7923 -24.6186
rradius 92.186
rwrist -50.7762
rhand 6.65447 395.184
rfingers 7.12502
rthumb 31.9467 -712.032
lclavicle -3.73715e-014 -3.97569e-014
lhumerus 18.8105 -47.8213 77.0807
lradius 76.7401
lwrist 21.1056
lhand 42.1319 16.9307
lfingers 7.12502
lthumb 64.1371 -694.518
rfemur 3.98464 3.15731 20.9192
rtibia 18.1712
rfoot 0.692872 -14.5994
rtoes 32.933
lfemur -24.928 -10.1185 -10.123
ltibia 37.3025
lfoot -5.31485 -18.2813
ltoes -48.7201
1654
root -3.71397 16.0189 1.80128 -539.283 -778.288 -904.297
lowerback -7.81843 -7.59533 0.338233
upperback -1.66741 -10.3876 -7.07748
thorax 1.19379 -5.40662 -8.41853
lowerneck 15.6649 -6.10415 -11.203
upperneck 9.41382 -10.9318 1.55859
head 1.14285 -6.23707 2.77732
rclavicle 5.80451e-014 0
rhumerus -29.6376 -12.9116 -23.763
rradius 97.723
rwrist -56.3029
rhand 5.9403 394.042
rfingers 7.12502
rthumb 31.2664 -713.308
lclavicle 5.80451e-014 0
lhumerus 21.0215 -49.3817 76.3197
lradius 76.4241
lwrist 21.6087
lhand 42.054 17.0445
lfingers 7.12502
lthumb 64.0744 -694.309
rfemur 2.97595 2.41219 22.9327
rtibia 20.5656
rfoot 0.0263452 -18.121
rtoes 27.9667
lfemur -25.9496 -7.86402 -9.88336
ltibia 37.9228
lfoot -4.36155 -17.8136
ltoes -49.3261
1655
root -3.34826 15.906 1.67099 -539.329 -780.958 -905.176
lowerback -7.2227 -7.16599 -1.04372
upperback -1.21726 -9.64257 -6.78279
thorax 1.72504 -4.98031 -7.26937
lowerneck 14.1251 -4.90978 -9.81988
upperneck 10.1868 -8.85774 -0.0828159
head 1.34752 -5.16505 1.86264
rclavicle 1.31198e-014 -3.18055e-015
rhumerus -30.3664 -11.3935 -22.7749
rradius 102.661
rwrist -60.7503
rhand 5.08757 393.735
rfingers 7.12502
rthumb 30.4535 -713.77
lclavicle 1.31198e-014 -3.18055e-015
lhumerus 23.5516 -50.4278 75.4978
lradius 76.1181
lwrist 22.3188
lhand 43.2252 17.2807
lfingers 7.12502
lthumb 65.0087 -695.557
rfemur 1.70356 3.27826 24.5128
rtibia 23.5871
rfoot -0.235346 -22.3566
rtoes 26.6268
lfemur -26.7008 -5.37263 -10.4292
ltibia 38.3074
lfoot -2.69736 -17.2499
ltoes -49.6576
1656
root -2.97945 15.7944 1.53821 -538.823 -783.366 -906.776
lowerback -6.49197 -6.61982 -2.73426
upperback -0.641872 -8.74284 -6.4707
thorax 2.32489 -4.4961 -5.91855
lowerneck 12.3252 -3.6339 -8.5811
upperneck 11.173 -6.69701 -1.54317
head 1.73899 -4.07996 1.05893
rclavicle -9.28324e-014 -1.90833e-014
rhumerus -31.0521 -10.0543 -21.7431
rradius 106.891
rwrist -63.227
rhand 4.20759 394.49
rfingers 7.12502
rthumb 29.6139 -713.167
lclavicle -9.28324e-014 -1.90833e-014
lhumerus 26.3912 -51.4031 74.6017
lradius 75.8591
lwrist 23.4729
lhand 46.0216 17.98
lfingers 7.12502
lthumb 67.1568 -698.9
rfemur -0.0239054 3.31059 25.5098
rtibia 27.1679
rfoot -0.309918 -25.1015
rtoes 28.12
lfemur -27.162 -3.11692 -11.3077
ltibia 38.3972
lfoot -0.932819 -16.4629
ltoes -49.9892
1657
root -2.615 15.6923 1.40199 -537.445 -785.48 -909.32
lowerback -5.70079 -5.81735 -4.54634
upperback -0.18216 -7.54803 -6.2242
thorax 2.72235 -3.89803 -4.53093
lowerneck 10.9564 -2.41193 -8.02566
upperneck 12.14 -4.78644 -2.26146
head 2.17004 -3.15387 0.66413
rclavicle -4.57205e-015 4.92986e-014
rhumerus -32.1093 -8.70829 -20.3375
rradius 110.656
rwrist -64.9429
rhand 4.42141 394.87
rfingers 7.12502
rthumb 29.818 -712.75
lclavicle -4.57205e-015 4.92986e-014
lhumerus 28.9606 -52.6671 74.1789
lradius 75.6676
lwrist 25.0476
lhand 49.0927 18.91
lfingers 7.12502
lthumb 69.3468 -703.378
rfemur -1.97666 2.82048 25.9163
rtibia 30.808
rfoot -0.372723 -27.3851
rtoes 29.5493
lfemur -27.3297 -1.13005 -12.5313
ltibia 38.1671
lfoot 0.951214 -15.235
ltoes -50.0399
1658
root -2.25714 15.5892 1.26379 -534.816 -787.499 -913.272
lowerback -4.73668 -4.77114 -6.20776
upperback 0.0490548 -6.13868 -6.47007
thorax 2.6257 -3.22191 -3.68759
lowerneck 10.3746 -1.35946 -7.26535
upperneck 13.2212 -3.2221 -2.45958
head 2.5597 -2.39871 0.43702
rclavicle 1.4392e-013 1.17681e-013
rhumerus -34.2984 -8.74463 -18.1478
rradius 114.083
rwrist -67.2152
rhand 9.7796 393.37
rfingers 7.12502
rthumb 34.9173 -713.205
lclavicle 1.4392e-013 1.17681e-013
lhumerus 30.7577 -54.7025 74.1052
lradius 75.5027
lwrist 26.9309
lhand 52.4187 19.8707
lfingers 7.12502
lthumb 71.4483 -709.673
rfemur -3.83203 1.90539 25.7928
rtibia 34.1732
rfoot 0.345721 -29.2743
rtoes 32.464
lfemur -27.2512 0.396489 -14.1841
ltibia 37.6688
lfoot 2.72567 -14.5391
ltoes -50.1122
1659
root -1.91578 15.4809 1.12393 -532.335 -789.584 -916.883
lowerback -3.95466 -3.9642 -7.28525
upperback 0.27954 -5.08401 -6.65924
thorax 2.51759 -2.71526 -3.16471
lowerneck 9.6361 -0.227712 -6.58561
upperneck 14.3646 -1.56001 -2.5139
head 3.02492 -1.59674 0.27872
rclavicle 1.43125e-013 3.02153e-014
rhumerus -35.8235 -10.4489 -15.576
rradius 116.877
rwrist -69.9644
rhand 20.9207 389.04
rfingers 7.12502
rthumb 45.3918 -714.303
lclavicle 1.43125e-013 3.02153e-014
lhumerus 32.2616 -56.2913 73.8797
lradius 75.3931
lwrist 29.1197
lhand 54.7485 20.8138
lfingers 7.12502
lthumb 72.6991 -714.814
rfemur -5.61673 0.669408 25.971
rtibia 37.1678
rfoot 0.832613 -30.599
rtoes 35.1861
lfemur -27.2843 1.44457 -15.4123
ltibia 37.0455
lfoot 4.50182 -14.4728
ltoes -50.1003
1660
root -1.59208 15.3609 0.980088 -530.56 -791.761 -919.588
lowerback -3.42282 -3.41683 -7.69117
upperback 0.490666 -4.37889 -6.74146
thorax 2.46167 -2.3706 -2.9516
lowerneck 9.17208 1.04235 -6.06495
upperneck 15.3288 0.22517 -2.4566
head 3.40418 -0.731657 0.199531
rclavicle 1.1947e-013 5.56597e-014
rhumerus -37.4886 -11.6009 -12.9178
rradius 119.141
rwrist -71.1437
rhand 26.926 386.605
rfingers 7.12502
rthumb 50.9233 -714.119
lclavicle 1.1947e-013 5.56597e-014
lhumerus 33.3094 -57.3021 73.7606
lradius 75.2274
lwrist 31.3179
lhand 56.7863 21.7709
lfingers 7.12502
lthumb 73.6051 -719.89
rfemur -7.30869 -0.631712 26.6179
rtibia 39.9071
rfoot 0.623696 -31.8846
rtoes 35.9699
lfemur -27.4767 2.43945 -16.0972
ltibia 36.3136
lfoot 6.30879 -15.0092
ltoes -50.3416
